HIERARCHY
ROOT Hip
{
    OFFSET 0.0 0.0 0.0
    CHANNELS 6 Xposition Yposition Zposition Zrotation Xrotation Yrotation
    JOINT RightHip
    {
        OFFSET -12.308971405029297 0.0 0.0
        CHANNELS 3 Zrotation Xrotation Yrotation
        JOINT RightKnee
        {
            OFFSET 0.0 0.0 -42.94720458984375
            CHANNELS 3 Zrotation Xrotation Yrotation
            JOINT RightAnkle
            {
                OFFSET 0.0 0.0 -43.262550354003906
                CHANNELS 3 Zrotation Xrotation Yrotation
                End Site
                {
                    OFFSET 0.0 -17.30501937866211 0.0
                }
            }
        }
    }
    JOINT LeftHip
    {
        OFFSET 12.308971405029297 0.0 0.0
        CHANNELS 3 Zrotation Xrotation Yrotation
        JOINT LeftKnee
        {
            OFFSET 0.0 0.0 -42.94720458984375
            CHANNELS 3 Zrotation Xrotation Yrotation
            JOINT LeftAnkle
            {
                OFFSET 0.0 0.0 -43.262550354003906
                CHANNELS 3 Zrotation Xrotation Yrotation
                End Site
                {
                    OFFSET 0.0 -17.30501937866211 0.0
                }
            }
        }
    }
    JOINT Spine
    {
        OFFSET 0.0 0.0 22.683095932006836
        CHANNELS 3 Zrotation Xrotation Yrotation
        JOINT Thorax
        {
            OFFSET 0.0 0.0 25.6595516204834
            CHANNELS 3 Zrotation Xrotation Yrotation
            JOINT Neck
            {
                OFFSET 0.0 0.0 9.6496000289917
                CHANNELS 3 Zrotation Xrotation Yrotation
                End Site
                {
                    OFFSET 0.0 0.0 3.859839677810669
                }
            }
            JOINT LeftShoulder
            {
                OFFSET 14.079702377319336 0.0 0.0
                CHANNELS 3 Zrotation Xrotation Yrotation
                JOINT LeftElbow
                {
                    OFFSET 26.46230697631836 0.0 0.0
                    CHANNELS 3 Zrotation Xrotation Yrotation
                    JOINT LeftWrist
                    {
                        OFFSET 21.889299392700195 0.0 0.0
                        CHANNELS 3 Zrotation Xrotation Yrotation
                        End Site
                        {
                            OFFSET 8.755720138549805 0.0 0.0
                        }
                    }
                }
            }
            JOINT RightShoulder
            {
                OFFSET -14.079702377319336 0.0 0.0
                CHANNELS 3 Zrotation Xrotation Yrotation
                JOINT RightElbow
                {
                    OFFSET -26.46230697631836 0.0 0.0
                    CHANNELS 3 Zrotation Xrotation Yrotation
                    JOINT RightWrist
                    {
                        OFFSET -21.889299392700195 0.0 0.0
                        CHANNELS 3 Zrotation Xrotation Yrotation
                        End Site
                        {
                            OFFSET -8.755720138549805 0.0 0.0
                        }
                    }
                }
            }
        }
    }
}
MOTION
Frames: 7
Frame Time: 0.03333333333333333
0.0006420201389119029 -0.002289837459102273 4.1910563595592976e-05 78.53565096194374 -18.5094041288665 -100.50752915925905 -0.1828549800004607 -7.413712645891068 -6.880087237979283 -2.9394652056480206 28.05135964370977 3.8773061525468315 -3.1805546814635168e-15 -1.7655625192200634e-31 6.3611093629270335e-15 -0.025401563440999933 -1.2582381035664225 -1.5907667946939013 -0.2016492303990868 40.55415129927626 2.3953501406420603 -3.1805546814635168e-15 0.0 0.0 0.24528986390938642 10.199091693323584 7.832390175543838 1.3582107488616346 9.60715069629302e-07 9.434125695482835e-07 18.863897942384845 14.376698085958862 -3.120828625158656 -25.951579816909437 12.553419541272548 66.56563820408581 -25.550464747589366 -9.114628603040694e-06 -8.87960368194406e-07 -6.361109362927033e-15 -3.1805546814635164e-15 -1.7655625192200634e-31 57.71871259491392 22.21610951777952 -74.20807705132476 44.87781253842061 3.6819702204883167e-06 -1.284211156376918e-06 0.0 -6.3611093629270335e-15 0.0
0.0006569569231942296 -0.0022407679352909327 2.9594673833344132e-05 78.83602404584586 -16.877471121339923 -100.12736817694 -0.17239954325254908 -7.11212742646965 -6.736839413019147 -2.8148153240767284 27.538985347246197 3.723986916474632 9.541664044390549e-15 0.0 0.0 -0.033594855959180006 -1.635863323707657 -1.903801701869351 -0.5146611173229995 41.91628240281362 2.7774316465013027 3.1805546814635164e-15 1.7655625192200634e-31 6.361109362927033e-15 0.23478122476248628 9.949942284874377 7.804827627842993 1.4827008809099502 3.0604621620350218e-06 -6.738218129005189e-07 19.03822538221047 15.052904871835771 -2.90981624382574 -25.532145547624445 12.752666844766248 66.56019550037605 -25.387072338854928 -3.2476427614257476e-06 1.8584264969572401e-07 6.361109362927033e-15 0.0 0.0 57.33625561686344 22.231259633924886 -73.69087598975688 43.37351997997667 7.074333338983162e-07 1.3324306689060997e-06 0.0 0.0 -6.3611093629270335e-15
0.0006466179620474577 -0.002217185450717807 2.6586531021166593e-05 79.00590123371593 -15.44314972807814 -99.80048261733671 -0.14883397724296604 -6.733852131835568 -6.52070569251487 -2.7110843819640853 27.064454018490917 3.5818979371553725 0.0 0.0 6.3611093629270335e-15 -0.03564580943245642 -1.8987251465258115 -2.1297883082664892 -0.8643972285072994 43.156926029565895 2.958771559171172 -3.1805546814635168e-15 0.0 0.0 0.21085518177086124 9.841287218849727 7.755131060932049 1.7525042479203692 -5.444584743141328e-06 2.7587005504894e-07 18.971464209298823 15.460250674666502 -2.7235644538067523 -26.00249918868807 13.381891249227928 66.72065898501903 -24.81278690657285 1.26498460455934e-06 6.84631911300746e-07 -6.361109362927035e-15 -3.975693351829395e-16 -3.1805546814635176e-15 57.30920848902674 22.331583624570797 -73.2761276732851 41.165070757373385 -1.0534431801618012e-06 -1.4119078625608888e-06 3.1805546814635168e-15 -6.3611093629270335e-15 1.7655625192200634e-31
0.0006691094022244215 -0.0021842955611646175 2.890763607865665e-05 79.17229375348654 -13.816656853876356 -99.41585298268483 -0.13576959872472713 -6.5040418619094105 -6.357025535463096 -2.6544523844332835 26.97642803350749 3.4507380277002677 0.0 0.0 -6.3611093629270335e-15 -0.03562765622534795 -2.0259563405375176 -2.3970086734695313 -1.220614754641256 44.06288679794344 3.0852171968872417 -6.3611093629270335e-15 0.0 0.0 0.19595455682712956 9.726437354148741 7.662254494792201 1.9858754973100194 1.6071888816306383e-06 -2.5501788772244914e-06 18.961667555588456 15.772500839683552 -2.792547990137576 -27.69207460905631 14.54754422543798 66.9013909574701 -24.655229053604543 -4.144454162785813e-06 -1.01533299454403e-06 6.3611093629270335e-15 1.9878466759146997e-16 3.1805546814635168e-15 56.45612830058603 22.54078358294374 -72.6277531329838 40.64419788675877 5.345842587696439e-07 3.1229196675283856e-06 -6.361109362927035e-15 6.361109362927035e-15 -3.1805546814635168e-15
0.0006805639714002609 -0.002162375720217824 2.738499824772589e-05 79.19523077687451 -12.074460661865112 -99.32933273002342 -0.10470409698622858 -5.955741110328558 -5.988737188423601 -2.5266942577082343 26.628966310288384 3.529968865542462 -9.54166404439055e-15 -6.3611093629270335e-15 6.361109362927033e-15 -0.025671099131129957 -1.8414830160368465 -2.3847974873990734 -1.4180534927348467 44.540632999249915 3.0963182757642707 0.0 0.0 0.0 0.16290294962489868 9.716490258055723 7.951499020434003 2.1473389223939106 1.8359621479432992e-06 -1.4031784334893436e-06 19.205884626008835 16.04100304034404 -3.1411056692410795 -29.126405276119158 15.839767981402272 66.99605211360847 -24.87193971042604 -1.7892075467414086e-06 6.458302658394555e-08 -6.3611093629270335e-15 1.7655625192200634e-31 -3.1805546814635168e-15 54.239724751731686 22.586739281731866 -71.72958145550966 40.58062335774441 -3.6730878193988136e-06 2.212481915333613e-07 -9.541664044390553e-15 6.361109362927035e-15 5.29668755766019e-31
0.0006762076518498361 -0.0021552937105298042 2.191624116676394e-05 79.14122959209239 -10.65418608560067 -99.25670039046867 -0.07934026578033407 -5.384663655878536 -5.652425569278491 -2.384798946143577 26.086830590612397 3.429577707084577 0.0 0.0 0.0 -0.01869023543266181 -1.7305332478574897 -2.4673301634521296 -1.6832337209788046 44.863119403393 2.899306900439258 -3.1805546814635168e-15 0.0 0.0 0.13529870259639598 9.793338223747032 8.232915598800089 2.293733879893715 -1.3908179112612774e-06 1.58903721823221e-06 19.605786920269146 16.063627664181197 -3.736783694513066 -29.05859320499798 16.652053747071346 66.89676581000131 -25.37096164770158 1.0942143937100254e-06 2.7210757563681394e-06 -6.3611093629270335e-15 0.0 0.0 52.156551149304505 22.368446958290306 -71.03127076930627 40.658406610648804 -1.5526944956414792e-06 4.210980404617855e-06 5.29668755766019e-31 6.3611093629270335e-15 -9.54166404439055e-15
0.0006529077072627842 -0.0021354658529162407 8.502593118464574e-06 78.93641515037966 -9.259643943649573 -99.3462231085983 -0.03780917723649743 -4.794768876365363 -5.238636470451646 -2.340660851594049 25.73450134566804 3.3903215704992564 -3.1805546814635168e-15 1.7655625192200634e-31 -6.3611093629270335e-15 -0.004788473611794019 -1.440358012514681 -2.41446741228024 -2.0550966467895155 45.26667327437645 2.9282192290097475 0.0 0.0 -6.3611093629270335e-15 0.06636868917116218 9.734526067548156 8.543115895299572 2.450952740566289 -9.702935003498146e-07 4.920777630185788e-06 19.958908437055417 16.648810918513018 -4.164010046382978 -27.36524670131352 16.898736200553465 66.40331356931452 -25.941203524529 1.5001594637518238e-06 9.050377818335983e-07 6.3611093629270335e-15 1.7655625192200634e-31 3.1805546814635168e-15 51.269251145984605 22.271073093819396 -70.71924791306736 40.64939234465436 -1.8022753555808634e-07 5.131846407137566e-07 0.0 0.0 -3.1805546814635168e-15
